<svg width="70" height="73" viewBox="0 0 70 73" fill="none" xmlns="http://www.w3.org/2000/svg">
<path d="M30.9162 0.276031C18.6958 2.36844 9.98882 14.6167 12.0255 26.865C12.6366 30.7436 14.2659 34.8263 15.9462 36.8677L16.9137 38.0415L19.7142 35.8981C23.4312 33.1422 25.6716 32.0194 29.4905 31.1008C37.0773 29.3146 43.7476 30.8967 50.6216 36.0001C52.0982 37.1229 53.3711 37.9905 53.5239 37.9905C53.6766 37.9905 54.3895 36.9698 55.1533 35.6939C62.791 22.5781 56.4771 5.48154 42.3728 1.09258C38.9613 0.0208588 34.3277 -0.285347 30.9162 0.276031ZM37.6883 7.93119C43.9003 9.61533 46.7008 17.7298 42.7801 22.5781C38.2993 28.1408 31.069 27.9877 27.0973 22.2719C23.8895 17.6277 25.8244 11.0443 31.069 8.59464C34.0222 7.21671 34.8878 7.16568 37.6883 7.93119Z" fill="#1D401D"/>
<path d="M2.14796 33.6526C1.02775 34.7244 0.875 35.3368 0.875 38.603C0.925918 48.5547 5.66131 57.4347 13.0445 61.4154C14.7248 62.2829 16.6596 63.7119 17.3725 64.5285C18.6455 66.1105 19.9693 70.9078 19.4602 72.2347C19.2056 72.8981 20.173 73.0002 25.5194 72.9491H31.8842L32.2406 68.6622C32.9535 60.0885 31.375 53.8112 27.8107 51.1064C26.8433 50.443 23.6354 48.6568 20.6822 47.2788C14.5211 44.3188 11.6697 41.614 9.32743 36.6126C8.56365 34.9795 7.54529 33.3464 7.08702 32.9892C5.76315 31.9685 3.47183 32.2747 2.14796 33.6526Z" fill="#1D401D"/>
<path d="M63.4021 32.989C62.9438 33.3463 61.9764 35.0304 61.1617 36.6635C58.7176 41.9711 55.1024 45.1863 48.534 47.9421C43.4422 50.0856 41.2018 51.9228 39.827 54.9849C38.2994 58.4042 37.8412 62.3338 38.2994 68.2538L38.6558 72.949H44.8679L51.1308 73L51.1817 70.6524C51.2836 66.1104 52.7602 63.8648 57.5465 61.3642C64.9296 57.3835 69.5632 48.6056 69.6141 38.6028C69.6141 35.3366 69.4614 34.7242 68.3412 33.6525C67.0173 32.2746 64.726 31.9683 63.4021 32.989Z" fill="#1D401D"/>
</svg>
